<svg height="512" viewBox="0 0 192 192" width="512" xmlns="http://www.w3.org/2000/svg"><g id="_03-luck" data-name="03-luck"><g id="Glyph"><path d="m185.726 57.793c-6.907-9.044-18.107-12.642-28.534-9.167-11.8 3.932-18.615 11.051-25.209 17.936-6.509 6.8-12.751 13.307-24.422 17.877 4.57-11.672 11.08-17.913 17.877-24.422 6.884-6.6 14-13.413 17.937-25.209 3.475-10.426-.123-21.626-9.167-28.534-8.336-6.368-22.432-9.643-38.208-1.185-15.776-8.457-29.872-5.182-38.207 1.185-9.044 6.908-12.643 18.108-9.167 28.534 3.932 11.8 11.051 18.614 17.936 25.209 6.8 6.509 13.307 12.75 17.877 24.422-11.672-4.57-17.913-11.08-24.422-17.877-6.6-6.885-13.413-14-25.209-17.936-10.427-3.476-21.626.122-28.534 9.167-6.367 8.335-9.643 22.429-1.185 38.207-8.458 15.778-5.182 29.872 1.185 38.207a25.86 25.86 0 0 0 20.553 10.473 25.184 25.184 0 0 0 7.981-1.306c11.8-3.932 18.614-11.051 25.209-17.936 6.509-6.8 12.75-13.307 24.422-17.877-4.57 11.672-11.08 17.913-17.877 24.422-6.885 6.595-14 13.413-17.936 25.209-3.476 10.426.123 21.626 9.167 28.534 8.335 6.367 22.431 9.642 38.207 1.185a40.093 40.093 0 0 0 19.007 5.089 31.639 31.639 0 0 0 19.2-6.274c9.044-6.908 12.642-18.108 9.167-28.534-3.933-11.8-11.053-18.614-17.937-25.209-6.8-6.509-13.307-12.75-17.877-24.422 11.671 4.57 17.913 11.08 24.422 17.877 6.594 6.885 13.413 14 25.21 17.936a25.169 25.169 0 0 0 7.98 1.306 25.86 25.86 0 0 0 20.553-10.473c6.367-8.335 9.642-22.429 1.185-38.207 8.458-15.778 5.183-29.872-1.184-38.207z"/></g></g></svg>