<svg id="Capa_1" enable-background="new 0 0 512 512" height="512" viewBox="0 0 512 512" width="512" xmlns="http://www.w3.org/2000/svg"><g><path d="m285.771 240.111c2.908 13.987 48.798 63.056 106.32 63.056 13.843 0 28.315-2.417 43.022-7.192 45.454-14.78 68.764-73.975 76.234-98.745 1.055-3.472.806-7.192-.674-10.503-11.25-24.946-41.957-40.459-78.549-40.459-37.115 0-64.039 12.962-87.056 31.313-12.569 25.517-32.747 46.481-59.297 62.53z"/><path d="m371.819 331.186c-32.064-4.999-60.769-20.795-81.731-38.881-14.28 8.708-60.218 86.334-6.601 160.133 26.968 37.104 87.642 41.104 112.471 41.104 3.001-.385 8.71 1.273 14.443-3.926 13.271-12.012 20.479-30.615 20.303-52.368-.205-24.375-9.39-51.288-25.869-73.979-10.796-14.847-21.784-24.453-33.016-32.083z"/><path d="m237.817 321.183c-53.963-10.545-98.974 6.292-130.682 49.904-28.11 38.701-11.338 100.697-2.827 125.131 1.187 3.413 3.574 6.284 6.709 8.071 38.289 21.953 89.965-6.174 117.48-44.033 5.462-7.515 9.476-14.628 12.799-21.564-15.723-35.81-14.788-70.28-10.001-94.201 1.584-7.933 3.84-15.77 6.522-23.308z"/><path d="m121.736 302.757c8.881 0 17.166-.965 25.475-2.131 18.563-8.097 38.741-12.488 60.383-12.488 1.87 0 3.818.229 5.711.291 10.719-15.842-.218-107.086-86.559-135.115-7.148-2.329-14.912-3.501-23.042-3.501-40.049 0-81.391 27.393-96.889 39.17-2.871 2.183-4.849 5.317-5.596 8.848-11.16 53.179 56.787 104.926 120.517 104.926z"/><path d="m239.731 229.295c59.654-21.769 91.262-64.407 91.262-123.523 0-47.856-49.424-88.334-70.664-103.085-2.974-2.065-6.577-3.003-10.195-2.593-38.774 4.263-69.141 51.244-69.141 105.678 0 20.131 3.94 35.281 9.3 48.999 22.699 19.1 40.216 45.032 49.438 74.524z"/></g></svg>